HIERARCHY
ROOT root
{
	OFFSET	0	13.1	24.9
	CHANNELS 6  Xposition Yposition Zposition Xrotation Yrotation Zrotation
	JOINT spine_1
	{
		OFFSET	0	9.99999	0
		CHANNELS 3  Xrotation Yrotation Zrotation
		JOINT spine_2
		{
			OFFSET	0	112	-10
			CHANNELS 3  Xrotation Yrotation Zrotation
			JOINT spine_3
			{
				OFFSET	0	206.5	19.3
				CHANNELS 3  Xrotation Yrotation Zrotation
				JOINT spine_4
				{
					OFFSET	0	110.4	14.6
					CHANNELS 3  Xrotation Yrotation Zrotation
					JOINT neck_1
					{
						OFFSET	0	71.8	-50.3
						CHANNELS 3  Xrotation Yrotation Zrotation
						JOINT neck_2
						{
							OFFSET	0	86.2	-25.8
							CHANNELS 3  Xrotation Yrotation Zrotation
							JOINT head_ee
							{
								OFFSET	0	179.8	-8.7
								CHANNELS 3  Xrotation Yrotation Zrotation
								End Site
								{
									OFFSET	1	0	0
								}
							}
						}
					}
					JOINT left_clavicle
					{
						OFFSET	-43.2	22.4	-70.8
						CHANNELS 3  Xrotation Yrotation Zrotation
						JOINT left_shoulder
						{
							OFFSET	-93.9	-5.79999	48.7
							CHANNELS 3  Xrotation Yrotation Zrotation
							JOINT left_elbow
							{
								OFFSET	-291.4	-30.8	15.2
								CHANNELS 3  Xrotation Yrotation Zrotation
								JOINT left_lowarm_twist
								{
									OFFSET	-110.7	-3.89999	13.6
									CHANNELS 3  Xrotation Yrotation Zrotation
									JOINT left_hand
									{
										OFFSET	-110.7	-3.89999	13.6
										CHANNELS 3  Xrotation Yrotation Zrotation
										JOINT left_ee
										{
											OFFSET	-80.8	-5.10001	12.1
											CHANNELS 3  Xrotation Yrotation Zrotation
											End Site
											{
												OFFSET	1	0	0
											}
										}
									}
								}
							}
						}
					}
					JOINT right_clavicle
					{
						OFFSET	43.2	22.4	-70.8
						CHANNELS 3  Xrotation Yrotation Zrotation
						JOINT right_shoulder
						{
							OFFSET	93.9	-5.79999	48.7
							CHANNELS 3  Xrotation Yrotation Zrotation
							JOINT right_elbow
							{
								OFFSET	291.4	-30.8	15.2
								CHANNELS 3  Xrotation Yrotation Zrotation
								JOINT right_lowarm_twist
								{
									OFFSET	110.7	-3.89999	13.6
									CHANNELS 3  Xrotation Yrotation Zrotation
									JOINT right_hand
									{
										OFFSET	110.7	-3.89999	13.6
										CHANNELS 3  Xrotation Yrotation Zrotation
										JOINT right_ee
										{
											OFFSET	80.8	-5.10001	12.1
											CHANNELS 3  Xrotation Yrotation Zrotation
											End Site
											{
												OFFSET	1	0	0
											}
										}
									}
								}
							}
						}
					}
				}
			}
		}
	}
	JOINT left_hip
	{
		OFFSET	-82.8	-127.5	0.300001
		CHANNELS 3  Xrotation Yrotation Zrotation
		JOINT left_knee
		{
			OFFSET	-28.2	-396.7	2.2
			CHANNELS 3  Xrotation Yrotation Zrotation
			JOINT left_ankle
			{
				OFFSET	-11.7	-411.3	35.4
				CHANNELS 3  Xrotation Yrotation Zrotation
				JOINT left_toes
				{
					OFFSET	0	-60	-88.6
					CHANNELS 3  Xrotation Yrotation Zrotation
					JOINT left_foot_ee
					{
						OFFSET	-22.5	-16.5	-42.2
						CHANNELS 3  Xrotation Yrotation Zrotation
						End Site
						{
							OFFSET	1	0	0
						}
					}
				}
			}
		}
	}
	JOINT right_hip
	{
		OFFSET	82.8	-127.5	0.300001
		CHANNELS 3  Xrotation Yrotation Zrotation
		JOINT right_knee
		{
			OFFSET	28.2	-396.7	2.2
			CHANNELS 3  Xrotation Yrotation Zrotation
			JOINT right_ankle
			{
				OFFSET	11.7	-411.3	35.4
				CHANNELS 3  Xrotation Yrotation Zrotation
				JOINT right_toes
				{
					OFFSET	0	-60	-88.6
					CHANNELS 3  Xrotation Yrotation Zrotation
					JOINT right_foot_ee
					{
						OFFSET	22.5	-16.5	-42.2
						CHANNELS 3  Xrotation Yrotation Zrotation
						End Site
						{
							OFFSET	1	0	0
						}
					}
				}
			}
		}
	}
}
MOTION
Frames: 9
Frame Time: 0.02
3177.02 653.055 -1669.29 27.5864155409 73.712472365 -21.4855922596 -1.13782 0.19775 -0.435537 -1.13774 0.225063 -0.422071 -1.13941 0.315955 -0.359124 -1.1395 0.255273 -0.404516 -14.2298 3.49548 -3.40256 -14.2564 8.73606 -2.11459 -0.0 0.0 -0.0 4.90902 22.363 9.52156 -23.8772 -6.15721 60.5015 0.254018 -7.17217 0.0159195 -37.5333 -2.69273 3.87793 4.46296 23.71 38.321 -0.0 0.0 -0.0 10.4259 3.16631 -20.6808 -0.27013 47.3806 -41.3959 3.1568 57.3897 -1.72824 -21.5053 1.23151 -2.44239 -4.43686 -5.69486 27.8227 0.0 0.0 0.0 20.4607 -4.8523 -8.99251 0.668703 -0.0281132 -0.0987649 -1.5042 5.9967 0.221096 25.7708 -0.0 -0.0 -0.0 0.0 -0.0 -28.753 10.0096 -7.69871 3.60777 0.165293 0.528794 32.4187 -1.3773 4.15374 -15.5492 0.0 0.0 0.0 0.0 0.0 
3129.22999462 651.511 -1667.98413238 22.7593974548 73.7546715272 -16.6833041588 -0.887636 0.0897728 -0.701586 -0.887372 0.134234 -0.694452 -0.888884 0.287269 -0.646344 -0.889421 0.181588 -0.683599 -10.3424 3.70181 -1.68551 -10.3558 8.10663 -0.696908 -0.0 0.0 -0.0 5.28901 22.7945 10.0483 -22.9334 -7.13094 60.941 0.371695 -10.433 0.033935 -33.9738 -2.33426 3.59513 4.54514 23.0277 38.8633 -0.0 0.0 -0.0 10.7855 4.10322 -21.482 -2.50449 45.5606 -40.6351 3.06205 56.5929 -1.64878 -23.6379 1.40184 -2.656 -4.1446 -8.98468 23.6983 0.0 0.0 0.0 20.059 -5.47859 -8.46146 -2.47029 0.0937999 0.367475 -12.5496 5.23569 1.8802 26.8434 -0.0 -0.0 -0.0 0.0 -0.0 -26.9586 9.76504 -6.82407 -1.6087 -0.0628873 -0.238861 32.0049 0.766968 4.12644 -17.5075 0.0 0.0 0.0 0.0 0.0 
3085.21951707 665.677 -1660.08327584 18.89369407 74.0573844755 -13.2045929432 -0.723696 -0.0947507 -0.711216 -0.723416 -0.0493033 -0.715803 -0.722602 0.111195 -0.708831 -0.723303 -0.0021437 -0.717496 -8.22487 4.01058 -0.745502 -8.22989 8.01692 0.149871 -0.0 0.0 -0.0 6.64061 22.7003 11.9957 -21.5944 -8.02108 60.1526 0.429813 -12.02 0.0452511 -31.0638 -2.05474 3.34785 3.80503 22.4018 33.2039 -0.0 0.0 -0.0 10.1573 4.45766 -20.1462 -7.89081 42.0372 -39.277 3.12761 57.1478 -1.70368 -24.3448 1.46005 -2.72541 -3.81145 -9.55863 21.0215 0.0 0.0 0.0 18.2211 -6.12753 -6.48462 -1.71655 0.0668629 0.254936 -19.2686 4.32217 2.90446 27.6682 -0.0 -0.0 -0.0 0.0 -0.0 -25.6507 10.1866 -5.68364 -5.41549 -0.184785 -0.810267 29.3673 -5.28429 3.82053 -18.5833 0.0 0.0 0.0 0.0 0.0 
3085.28542916 665.677 -1659.44820402 19.3541308014 74.4320156583 -13.6830007385 -0.723696 -0.0947507 -0.711216 -0.723416 -0.0493033 -0.715803 -0.722602 0.111195 -0.708831 -0.723303 -0.0021437 -0.717496 -8.22487 4.01058 -0.745502 -8.22989 8.01692 0.149871 -0.0 0.0 -0.0 6.64061 22.7003 11.9957 -21.5944 -8.02108 60.1526 0.429813 -12.02 0.0452511 -31.0638 -2.05474 3.34785 3.80503 22.4018 33.2039 -0.0 0.0 -0.0 10.1573 4.45766 -20.1462 -7.89081 42.0372 -39.277 3.12761 57.1478 -1.70368 -24.3448 1.46005 -2.72541 -3.81145 -9.55863 21.0215 0.0 0.0 0.0 18.2211 -6.12753 -6.48462 -1.71655 0.0668629 0.254936 -19.2686 4.32217 2.90446 27.6682 -0.0 -0.0 -0.0 0.0 -0.0 -25.6507 10.1866 -5.68364 -5.41549 -0.184785 -0.810267 29.3673 -5.28429 3.82053 -18.5833 0.0 0.0 0.0 0.0 0.0 
3043.6097121 673.626 -1660.59592135 20.3433903442 74.2614283032 -14.3207439935 -0.663841 -0.308261 -1.05608 -0.663253 -0.240439 -1.07355 -0.658227 0.00319115 -1.10014 -0.659876 -0.170585 -1.08684 -7.10082 4.96814 1.71217 -7.09589 8.00051 2.72268 -0.0 0.0 -0.0 7.70504 21.0746 13.7287 -20.4925 -11.5596 60.4473 0.499784 -13.9058 0.060949 -30.3987 -1.99265 3.28936 3.12774 23.9728 28.7958 -0.0 0.0 -0.0 9.59342 5.0674 -18.9568 -11.1856 39.7406 -40.3799 2.99536 56.011 -1.59329 -25.7869 1.58144 -2.86477 -3.09316 -9.66827 16.0681 0.0 0.0 0.0 13.9216 -4.63542 -6.56433 0.669558 -0.0281499 -0.098891 -14.7043 1.88265 2.21941 28.383 -0.0 -0.0 -0.0 0.0 -0.0 -23.8314 9.88856 -4.08013 -10.3128 -0.285327 -1.55484 29.0238 -8.96327 3.78705 -19.8943 0.0 0.0 0.0 0.0 0.0 
2972.29635782 684.92 -1674.61553561 17.8956364775 70.7402919728 -11.3511295683 -0.646464 -0.325609 -1.40543 -0.645396 -0.235527 -1.42329 -0.63869 0.0849266 -1.44014 -0.641556 -0.143559 -1.43548 -8.26932 8.1277 6.52103 -8.17517 10.6092 8.23007 -0.0 0.0 -0.0 9.14952 19.2222 16.2124 -18.0738 -13.1243 58.3889 0.625007 -17.2032 0.094542 -26.9058 -1.67803 2.97078 2.07904 23.5354 21.8947 -0.0 0.0 -0.0 7.18508 1.12419 -13.9606 -11.8519 36.0973 -48.8832 2.78745 54.0777 -1.42287 -27.4455 1.72537 -3.02124 -2.82673 -9.76806 14.2379 0.0 0.0 0.0 7.82205 -1.27921 -5.02182 6.47612 -0.320316 -0.941309 -6.65753 -1.27776 1.00247 24.5256 -0.0 -0.0 -0.0 0.0 -0.0 -19.2166 10.977 -3.72307 -21.9736 -0.266972 -3.34082 22.8345 -9.35338 3.07871 -21.9875 0.0 0.0 0.0 0.0 0.0 
2972.28026302 684.92 -1673.95595071 18.0594984442 70.9158698958 -11.5246131748 -0.646464 -0.325609 -1.40543 -0.645396 -0.235527 -1.42329 -0.63869 0.0849266 -1.44014 -0.641556 -0.143559 -1.43548 -8.26932 8.1277 6.52103 -8.17517 10.6092 8.23007 -0.0 0.0 -0.0 9.14952 19.2222 16.2124 -18.0738 -13.1243 58.3889 0.625007 -17.2032 0.094542 -26.9058 -1.67803 2.97078 2.07904 23.5354 21.8947 -0.0 0.0 -0.0 7.18508 1.12419 -13.9606 -11.8519 36.0973 -48.8832 2.78745 54.0777 -1.42287 -27.4455 1.72537 -3.02124 -2.82673 -9.76806 14.2379 0.0 0.0 0.0 7.82205 -1.27921 -5.02182 6.47612 -0.320316 -0.941309 -6.65753 -1.27776 1.00247 24.5256 -0.0 -0.0 -0.0 0.0 -0.0 -19.2166 10.977 -3.72307 -21.9736 -0.266972 -3.34082 22.8345 -9.35338 3.07871 -21.9875 0.0 0.0 0.0 0.0 0.0 
2972.27843579 684.92 -1673.87507159 18.0798025203 70.9373872751 -11.5460966757 -0.646464 -0.325609 -1.40543 -0.645396 -0.235527 -1.42329 -0.63869 0.0849266 -1.44014 -0.641556 -0.143559 -1.43548 -8.26932 8.1277 6.52103 -8.17517 10.6092 8.23007 -0.0 0.0 -0.0 9.14952 19.2222 16.2124 -18.0738 -13.1243 58.3889 0.625007 -17.2032 0.094542 -26.9058 -1.67803 2.97078 2.07904 23.5354 21.8947 -0.0 0.0 -0.0 7.18508 1.12419 -13.9606 -11.8519 36.0973 -48.8832 2.78745 54.0777 -1.42287 -27.4455 1.72537 -3.02124 -2.82673 -9.76806 14.2379 0.0 0.0 0.0 7.82205 -1.27921 -5.02182 6.47612 -0.320316 -0.941309 -6.65753 -1.27776 1.00247 24.5256 -0.0 -0.0 -0.0 0.0 -0.0 -19.2166 10.977 -3.72307 -21.9736 -0.266972 -3.34082 22.8345 -9.35338 3.07871 -21.9875 0.0 0.0 0.0 0.0 0.0 
2955.20230967 689.063 -1690.26432811 15.4419121479 67.187298279 -8.30794040553 -0.51246 -0.153764 -1.69446 -0.510864 -0.0456457 -1.7008 -0.508547 0.32776 -1.66956 -0.512432 0.0600113 -1.70036 -8.83071 8.77361 7.62915 -8.7015 11.1442 9.50094 -0.0 0.0 -0.0 9.08877 18.1515 16.2601 -17.9658 -15.1845 57.7738 0.72435 -19.7391 0.126024 -26.4583 -1.63915 2.9286 1.94459 23.6012 21.0702 -0.0 0.0 -0.0 6.56199 0.475563 -12.7214 -12.7244 35.4871 -50.6799 2.66978 52.8969 -1.32828 -27.8655 1.76252 -3.0602 -2.36687 -10.195 10.9925 0.0 0.0 0.0 5.01498 -0.191197 -5.99258 7.56969 -0.384844 -1.0965 -3.72079 -1.10744 0.556835 24.766 -0.0 -0.0 -0.0 0.0 -0.0 -16.9799 10.6363 -3.43551 -27.6585 -0.126606 -4.20159 20.3111 -6.7901 2.76922 -22.2966 0.0 0.0 0.0 0.0 0.0 
